<?xml version="1.0" encoding="utf-8"?>
<!-- Generator: Adobe Illustrator 18.0.0, SVG Export Plug-In . SVG Version: 6.00 Build 0)  -->
<!DOCTYPE svg PUBLIC "-//W3C//DTD SVG 1.1//EN" "http://www.w3.org/Graphics/SVG/1.1/DTD/svg11.dtd">
<svg version="1.1" id="Layer_1" xmlns="http://www.w3.org/2000/svg" xmlns:xlink="http://www.w3.org/1999/xlink" x="0px" y="0px"
	 viewBox="0 0 503 334" enable-background="new 0 0 503 334" xml:space="preserve">
<polygon points="503,334 82.2,334 0,256 0,0 345,0.1 503,153.4 "/>
<g>
	<polygon fill="#FFFFFF" points="60,59 121,59 121,276.1 60,215.1 	"/>
	<polygon fill="#FFFFFF" points="310,59.1 371,119.2 371,215 443,215 443,276 310,276 	"/>
	<path fill="#FFFFFF" d="M187.9,59c-39.3,0-59.9,19.9-59.9,59.3c0,0.5,0,0.7,0,1.7h57.9h101.8H304V59C304,59,198.5,59,187.9,59z"/>
	<g>
		<path fill="#FFFFFF" d="M188.2,196c6.4,0,57.8,0,57.8,0v12h58c0-6,0-9.2,0-11.1c0-39.3-17.5-60.9-56.8-60.9c-8.6,0-61.2,0-61.2,0
			v-9h-58c0,4,0,7.3,0,10.9C128,177.3,148.9,196,188.2,196z"/>
		<path fill="#FFFFFF" d="M128,215v61c0,0,89.1,0,119.2,0c39,0,56.8-20.1,56.8-59.3c0-0.6,0-1.7,0-1.7H128z"/>
	</g>
</g>
</svg>